<mxfile host="app.diagrams.net" agent="Mozilla/5.0 (Windows NT 10.0; Win64; x64; rv:138.0) Gecko/20100101 Firefox/138.0" version="26.2.14">
  <diagram name="PÃ¡gina-1" id="vBQIuFQWSpMHyGR-GsdD">
    <mxGraphModel dx="2754" dy="1257" grid="0" gridSize="10" guides="1" tooltips="1" connect="1" arrows="1" fold="1" page="0" pageScale="1" pageWidth="827" pageHeight="1169" math="0" shadow="0" adaptiveColors="none">
      <root>
        <mxCell id="0" />
        <mxCell id="1" parent="0" />
        <mxCell id="lTdS-kga0XzyNywZf7Lx-35" value="" style="rounded=0;whiteSpace=wrap;html=1;" parent="1" vertex="1">
          <mxGeometry x="-1131" y="1792" width="608" height="366" as="geometry" />
        </mxCell>
        <mxCell id="lTdS-kga0XzyNywZf7Lx-36" value="Open-Meteo API" style="text;html=1;align=center;verticalAlign=middle;whiteSpace=wrap;rounded=0;" parent="1" vertex="1">
          <mxGeometry x="-1115.5" y="1802" width="81.5" height="31" as="geometry" />
        </mxCell>
        <mxCell id="lTdS-kga0XzyNywZf7Lx-33" value="" style="rounded=0;whiteSpace=wrap;html=1;" parent="1" vertex="1">
          <mxGeometry x="-1112" y="2194" width="561" height="240" as="geometry" />
        </mxCell>
        <mxCell id="lTdS-kga0XzyNywZf7Lx-34" value="Fonte 4" style="text;html=1;align=center;verticalAlign=middle;whiteSpace=wrap;rounded=0;" parent="1" vertex="1">
          <mxGeometry x="-1103" y="2205" width="60" height="30" as="geometry" />
        </mxCell>
        <mxCell id="lTdS-kga0XzyNywZf7Lx-31" value="" style="rounded=0;whiteSpace=wrap;html=1;" parent="1" vertex="1">
          <mxGeometry x="-1131" y="1360" width="608" height="366" as="geometry" />
        </mxCell>
        <mxCell id="lTdS-kga0XzyNywZf7Lx-32" value="Fonte 4" style="text;html=1;align=center;verticalAlign=middle;whiteSpace=wrap;rounded=0;" parent="1" vertex="1">
          <mxGeometry x="-1122" y="1371" width="60" height="30" as="geometry" />
        </mxCell>
        <mxCell id="lTdS-kga0XzyNywZf7Lx-29" value="" style="rounded=0;whiteSpace=wrap;html=1;" parent="1" vertex="1">
          <mxGeometry x="-1143" y="846" width="608" height="366" as="geometry" />
        </mxCell>
        <mxCell id="lTdS-kga0XzyNywZf7Lx-27" value="" style="rounded=0;whiteSpace=wrap;html=1;" parent="1" vertex="1">
          <mxGeometry x="-1143" y="-125" width="518" height="466" as="geometry" />
        </mxCell>
        <mxCell id="lTdS-kga0XzyNywZf7Lx-25" value="" style="rounded=0;whiteSpace=wrap;html=1;" parent="1" vertex="1">
          <mxGeometry x="-1143" y="359" width="607" height="284" as="geometry" />
        </mxCell>
        <mxCell id="I2wZMgq4uo3CNsY73Vdn-13" value="" style="rounded=0;whiteSpace=wrap;html=1;fillColor=light-dark(#8ad7a9, #233822);fontColor=#ffffff;strokeColor=#A4FCB2;" parent="1" vertex="1">
          <mxGeometry x="-488" y="-190" width="1231" height="2676" as="geometry" />
        </mxCell>
        <mxCell id="I2wZMgq4uo3CNsY73Vdn-18" style="edgeStyle=none;curved=1;rounded=0;orthogonalLoop=1;jettySize=auto;html=1;fontSize=12;startSize=8;endSize=8;" parent="1" source="I2wZMgq4uo3CNsY73Vdn-1" target="I2wZMgq4uo3CNsY73Vdn-17" edge="1">
          <mxGeometry relative="1" as="geometry" />
        </mxCell>
        <mxCell id="I2wZMgq4uo3CNsY73Vdn-1" value="&lt;font face=&quot;Helvetica&quot;&gt;&lt;span style=&quot;color: rgb(0, 0, 0); font-style: normal; font-variant-ligatures: normal; font-variant-caps: normal; font-weight: 400; letter-spacing: normal; text-align: center; text-indent: 0px; text-transform: none; white-space: normal; word-spacing: 0px; -webkit-text-stroke-width: 0px; background-color: rgb(255, 255, 255); text-decoration-style: initial; text-decoration-color: initial; display: inline !important; float: none;&quot;&gt;FL_DATE&lt;/span&gt;&lt;br style=&quot;color: rgb(0, 0, 0); font-style: normal; font-variant-ligatures: normal; font-variant-caps: normal; font-weight: 400; letter-spacing: normal; text-align: center; text-indent: 0px; text-transform: none; white-space: normal; word-spacing: 0px; -webkit-text-stroke-width: 0px; background-color: rgb(255, 255, 255); text-decoration-style: initial; text-decoration-color: initial;&quot;&gt;&lt;span style=&quot;color: rgb(0, 0, 0); font-style: normal; font-variant-ligatures: normal; font-variant-caps: normal; font-weight: 400; letter-spacing: normal; text-align: center; text-indent: 0px; text-transform: none; white-space: normal; word-spacing: 0px; -webkit-text-stroke-width: 0px; background-color: rgb(255, 255, 255); text-decoration-style: initial; text-decoration-color: initial; display: inline !important; float: none;&quot;&gt;AIRLINE_CODE&lt;/span&gt;&lt;br style=&quot;color: rgb(0, 0, 0); font-style: normal; font-variant-ligatures: normal; font-variant-caps: normal; font-weight: 400; letter-spacing: normal; text-align: center; text-indent: 0px; text-transform: none; white-space: normal; word-spacing: 0px; -webkit-text-stroke-width: 0px; background-color: rgb(255, 255, 255); text-decoration-style: initial; text-decoration-color: initial;&quot;&gt;&lt;span style=&quot;color: rgb(0, 0, 0); font-style: normal; font-variant-ligatures: normal; font-variant-caps: normal; font-weight: 400; letter-spacing: normal; text-align: center; text-indent: 0px; text-transform: none; white-space: normal; word-spacing: 0px; -webkit-text-stroke-width: 0px; background-color: rgb(255, 255, 255); text-decoration-style: initial; text-decoration-color: initial; display: inline !important; float: none;&quot;&gt;FL_NUMBER&lt;/span&gt;&lt;br style=&quot;color: rgb(0, 0, 0); font-style: normal; font-variant-ligatures: normal; font-variant-caps: normal; font-weight: 400; letter-spacing: normal; text-align: center; text-indent: 0px; text-transform: none; white-space: normal; word-spacing: 0px; -webkit-text-stroke-width: 0px; background-color: rgb(255, 255, 255); text-decoration-style: initial; text-decoration-color: initial;&quot;&gt;&lt;span style=&quot;color: rgb(0, 0, 0); font-style: normal; font-variant-ligatures: normal; font-variant-caps: normal; font-weight: 400; letter-spacing: normal; text-align: center; text-indent: 0px; text-transform: none; white-space: normal; word-spacing: 0px; -webkit-text-stroke-width: 0px; background-color: rgb(255, 255, 255); text-decoration-style: initial; text-decoration-color: initial; display: inline !important; float: none;&quot;&gt;ORIGIN&lt;/span&gt;&lt;br style=&quot;color: rgb(0, 0, 0); font-style: normal; font-variant-ligatures: normal; font-variant-caps: normal; font-weight: 400; letter-spacing: normal; text-align: center; text-indent: 0px; text-transform: none; white-space: normal; word-spacing: 0px; -webkit-text-stroke-width: 0px; background-color: rgb(255, 255, 255); text-decoration-style: initial; text-decoration-color: initial;&quot;&gt;&lt;span style=&quot;color: rgb(0, 0, 0); font-style: normal; font-variant-ligatures: normal; font-variant-caps: normal; font-weight: 400; letter-spacing: normal; text-align: center; text-indent: 0px; text-transform: none; white-space: normal; word-spacing: 0px; -webkit-text-stroke-width: 0px; background-color: rgb(255, 255, 255); text-decoration-style: initial; text-decoration-color: initial; display: inline !important; float: none;&quot;&gt;DEST&lt;/span&gt;&lt;br style=&quot;color: rgb(0, 0, 0); font-style: normal; font-variant-ligatures: normal; font-variant-caps: normal; font-weight: 400; letter-spacing: normal; text-align: center; text-indent: 0px; text-transform: none; white-space: normal; word-spacing: 0px; -webkit-text-stroke-width: 0px; background-color: rgb(255, 255, 255); text-decoration-style: initial; text-decoration-color: initial;&quot;&gt;&lt;span style=&quot;color: rgb(0, 0, 0); font-style: normal; font-variant-ligatures: normal; font-variant-caps: normal; font-weight: 400; letter-spacing: normal; text-align: center; text-indent: 0px; text-transform: none; white-space: normal; word-spacing: 0px; -webkit-text-stroke-width: 0px; background-color: rgb(255, 255, 255); text-decoration-style: initial; text-decoration-color: initial; display: inline !important; float: none;&quot;&gt;DEP_TIME&lt;/span&gt;&lt;br style=&quot;color: rgb(0, 0, 0); font-style: normal; font-variant-ligatures: normal; font-variant-caps: normal; font-weight: 400; letter-spacing: normal; text-align: center; text-indent: 0px; text-transform: none; white-space: normal; word-spacing: 0px; -webkit-text-stroke-width: 0px; background-color: rgb(255, 255, 255); text-decoration-style: initial; text-decoration-color: initial;&quot;&gt;CRS_DEP_TIME&lt;br style=&quot;color: rgb(0, 0, 0); font-style: normal; font-variant-ligatures: normal; font-variant-caps: normal; font-weight: 400; letter-spacing: normal; text-align: center; text-indent: 0px; text-transform: none; white-space: normal; word-spacing: 0px; -webkit-text-stroke-width: 0px; background-color: rgb(255, 255, 255); text-decoration-style: initial; text-decoration-color: initial;&quot;&gt;&lt;span style=&quot;color: rgb(0, 0, 0); font-style: normal; font-variant-ligatures: normal; font-variant-caps: normal; font-weight: 400; letter-spacing: normal; text-align: center; text-indent: 0px; text-transform: none; white-space: normal; word-spacing: 0px; -webkit-text-stroke-width: 0px; background-color: rgb(255, 255, 255); text-decoration-style: initial; text-decoration-color: initial; display: inline !important; float: none;&quot;&gt;CRS_ARR_TIME&lt;/span&gt;&lt;br style=&quot;color: rgb(0, 0, 0); font-style: normal; font-variant-ligatures: normal; font-variant-caps: normal; font-weight: 400; letter-spacing: normal; text-align: center; text-indent: 0px; text-transform: none; white-space: normal; word-spacing: 0px; -webkit-text-stroke-width: 0px; background-color: rgb(255, 255, 255); text-decoration-style: initial; text-decoration-color: initial;&quot;&gt;&lt;span style=&quot;color: rgb(0, 0, 0); font-style: normal; font-variant-ligatures: normal; font-variant-caps: normal; font-weight: 400; letter-spacing: normal; text-align: center; text-indent: 0px; text-transform: none; white-space: normal; word-spacing: 0px; -webkit-text-stroke-width: 0px; background-color: rgb(255, 255, 255); text-decoration-style: initial; text-decoration-color: initial; display: inline !important; float: none;&quot;&gt;ARR_TIME&lt;/span&gt;&lt;span style=&quot;color: rgb(0, 0, 0); font-style: normal; font-variant-ligatures: normal; font-variant-caps: normal; font-weight: 400; letter-spacing: normal; text-align: center; text-indent: 0px; text-transform: none; white-space: normal; word-spacing: 0px; -webkit-text-stroke-width: 0px; background-color: rgb(255, 255, 255); text-decoration-style: initial; text-decoration-color: initial; display: inline !important; float: none;&quot;&gt;&lt;br&gt;&lt;/span&gt;&lt;span style=&quot;color: rgb(0, 0, 0); font-style: normal; font-variant-ligatures: normal; font-variant-caps: normal; font-weight: 400; letter-spacing: normal; text-align: center; text-indent: 0px; text-transform: none; white-space: normal; word-spacing: 0px; -webkit-text-stroke-width: 0px; background-color: rgb(255, 255, 255); text-decoration-style: initial; text-decoration-color: initial; display: inline !important; float: none;&quot;&gt;CANCELLED&lt;/span&gt;&lt;br style=&quot;color: rgb(0, 0, 0); font-style: normal; font-variant-ligatures: normal; font-variant-caps: normal; font-weight: 400; letter-spacing: normal; text-align: center; text-indent: 0px; text-transform: none; white-space: normal; word-spacing: 0px; -webkit-text-stroke-width: 0px; background-color: rgb(255, 255, 255); text-decoration-style: initial; text-decoration-color: initial;&quot;&gt;&lt;span style=&quot;color: rgb(0, 0, 0); font-style: normal; font-variant-ligatures: normal; font-variant-caps: normal; font-weight: 400; letter-spacing: normal; text-align: center; text-indent: 0px; text-transform: none; white-space: normal; word-spacing: 0px; -webkit-text-stroke-width: 0px; background-color: rgb(255, 255, 255); text-decoration-style: initial; text-decoration-color: initial; display: inline !important; float: none;&quot;&gt;DIVERTED&lt;br&gt;DISTANCE&lt;br&gt;DELAY_DUE_CARRIER&lt;br&gt;DELAY_DUE_WEATHER&lt;br&gt;DELAY_DUE_NAS&lt;br&gt;DELAY_DUE_SECURITY&lt;br&gt;DELAY_DUE_LATE_AIRCRAFT&lt;/span&gt;&lt;/font&gt;" style="rounded=0;whiteSpace=wrap;html=1;" parent="1" vertex="1">
          <mxGeometry x="-840" y="-49" width="190" height="375" as="geometry" />
        </mxCell>
        <mxCell id="I2wZMgq4uo3CNsY73Vdn-2" value="&lt;h2 class=&quot;sc-cZSric sc-boYqxe eNXgIn bvFneb&quot;&gt;&lt;font style=&quot;font-size: 14px;&quot;&gt;&lt;span style=&quot;font-weight: normal;&quot;&gt;Flight Delay and Cancellation Dataset (2019-2023)&lt;/span&gt;&lt;/font&gt;&lt;/h2&gt;" style="text;html=1;align=center;verticalAlign=middle;whiteSpace=wrap;rounded=0;" parent="1" vertex="1">
          <mxGeometry x="-842" y="-103" width="210" height="54" as="geometry" />
        </mxCell>
        <mxCell id="I2wZMgq4uo3CNsY73Vdn-28" style="edgeStyle=none;curved=1;rounded=0;orthogonalLoop=1;jettySize=auto;html=1;entryX=0;entryY=0.5;entryDx=0;entryDy=0;fontSize=12;startSize=8;endSize=8;" parent="1" source="I2wZMgq4uo3CNsY73Vdn-4" target="I2wZMgq4uo3CNsY73Vdn-22" edge="1">
          <mxGeometry relative="1" as="geometry" />
        </mxCell>
        <mxCell id="I2wZMgq4uo3CNsY73Vdn-4" value="&lt;span style=&quot;font-family: &amp;quot;gg sans&amp;quot;, &amp;quot;Noto Sans&amp;quot;, &amp;quot;Helvetica Neue&amp;quot;, Helvetica, Arial, sans-serif; font-style: normal; font-variant-ligatures: normal; font-variant-caps: normal; font-weight: 400; letter-spacing: normal; text-align: left; text-indent: 0px; text-transform: none; word-spacing: 0px; -webkit-text-stroke-width: 0px; white-space: break-spaces; background-color: oklab(0.678888 0.00325716 -0.011175 / 0.12); text-decoration-thickness: initial; text-decoration-style: initial; text-decoration-color: initial; display: inline !important; float: none;&quot;&gt;Airline_ID&lt;br&gt;Country&lt;/span&gt;&lt;div&gt;&lt;span style=&quot;font-family: &amp;quot;gg sans&amp;quot;, &amp;quot;Noto Sans&amp;quot;, &amp;quot;Helvetica Neue&amp;quot;, Helvetica, Arial, sans-serif; font-style: normal; font-variant-ligatures: normal; font-variant-caps: normal; font-weight: 400; letter-spacing: normal; text-align: left; text-indent: 0px; text-transform: none; word-spacing: 0px; -webkit-text-stroke-width: 0px; white-space: break-spaces; background-color: oklab(0.678888 0.00325716 -0.011175 / 0.12); text-decoration-thickness: initial; text-decoration-style: initial; text-decoration-color: initial; display: inline !important; float: none;&quot;&gt;Name&lt;/span&gt;&lt;/div&gt;" style="rounded=0;whiteSpace=wrap;html=1;fontSize=12;" parent="1" vertex="1">
          <mxGeometry x="-998" y="469.5" width="120" height="118" as="geometry" />
        </mxCell>
        <mxCell id="I2wZMgq4uo3CNsY73Vdn-5" value="&lt;font style=&quot;font-size: 14px;&quot;&gt;&lt;span style=&quot;font-family: &amp;quot;gg sans&amp;quot;, &amp;quot;Noto Sans&amp;quot;, &amp;quot;Helvetica Neue&amp;quot;, Helvetica, Arial, sans-serif; font-style: normal; font-variant-ligatures: normal; font-variant-caps: normal; font-weight: 400; letter-spacing: normal; text-align: left; text-indent: 0px; text-transform: none; word-spacing: 0px; -webkit-text-stroke-width: 0px; white-space: break-spaces; background-color: oklab(0.678888 0.00325716 -0.011175 / 0.12); text-decoration-thickness: initial; text-decoration-style: initial; text-decoration-color: initial; display: inline !important; float: none;&quot;&gt;Companhias AÃ©reas - Airline Database&lt;/span&gt;&lt;/font&gt;" style="text;strokeColor=none;fillColor=none;html=1;align=center;verticalAlign=middle;whiteSpace=wrap;rounded=0;fontSize=12;fontColor=default;" parent="1" vertex="1">
          <mxGeometry x="-1039" y="411" width="213" height="30" as="geometry" />
        </mxCell>
        <mxCell id="I2wZMgq4uo3CNsY73Vdn-6" value="&lt;ol style=&quot;border: 0px; font-family: &amp;quot;gg sans&amp;quot;, &amp;quot;Noto Sans&amp;quot;, &amp;quot;Helvetica Neue&amp;quot;, Helvetica, Arial, sans-serif; font-style: normal; font-weight: 400; margin: 0px; padding: 0px; vertical-align: baseline; list-style: none; min-height: 0px; overflow: hidden; font-variant-ligatures: normal; font-variant-caps: normal; letter-spacing: normal; text-align: start; text-indent: 0px; text-transform: none; word-spacing: 0px; -webkit-text-stroke-width: 0px; white-space: normal; text-decoration-thickness: initial; text-decoration-style: initial; text-decoration-color: initial;&quot; tabindex=&quot;0&quot; data-list-id=&quot;chat-messages&quot; role=&quot;list&quot; aria-label=&quot;Mensagens em parte5-nifi&quot; class=&quot;scrollerInner__36d07&quot;&gt;&lt;li style=&quot;border: 0px; font-family: inherit; font-style: inherit; font-weight: inherit; margin: 0px; padding: 0px; vertical-align: baseline; outline: none; position: relative;&quot; aria-setsize=&quot;-1&quot; class=&quot;messageListItem__5126c&quot; id=&quot;chat-messages-1365691978137997484-1365700835996209223&quot;&gt;&lt;div style=&quot;border: 0px; font-family: inherit; font-style: inherit; font-weight: inherit; margin: 0px; padding-top: var(--custom-message-spacing-vertical-container-cozy); padding-right: var(--space-xl)     !important; padding-bottom: var(--custom-message-spacing-vertical-container-cozy); padding-left: var(--custom-message-margin-left-content-cozy); vertical-align: baseline; outline: 0px; position: relative; overflow-wrap: break-word; flex: 0 0 auto; min-height: 1.375rem; user-select: text; border-bottom-right-radius: var(--radius-xs); border-top-right-radius: var(--radius-xs);&quot; aria-labelledby=&quot;message-username-1365700224311492669 uid_1 message-content-1365700835996209223 uid_2 message-timestamp-1365700835996209223&quot; aria-roledescription=&quot;Mensagem&quot; aria-setsize=&quot;-1&quot; tabindex=&quot;-1&quot; data-list-item-id=&quot;chat-messages___chat-messages-1365691978137997484-1365700835996209223&quot; role=&quot;article&quot; class=&quot;message__5126c cozyMessage__5126c wrapper_c19a55 cozy_c19a55 zalgo_c19a55&quot;&gt;&lt;div style=&quot;border: 0px; font-family: inherit; font-style: inherit; font-weight: inherit; margin: 0px; padding: 0px; vertical-align: baseline; outline: 0px; position: static; text-indent: 0px;&quot; class=&quot;contents_c19a55&quot;&gt;&lt;div style=&quot;border: 0px; font-family: inherit; font-style: inherit; font-weight: inherit; margin-top: 0px; margin-right: 0px; margin-bottom: 0px; margin-left: calc(var(--custom-message-margin-left-content-cozy)*-1); padding-top: 0px; padding-right: 0px; padding-bottom: 0px; padding-left: var(--custom-message-margin-left-content-cozy); vertical-align: baseline; outline: 0px; line-height: var(--chat-markup-line-height); white-space: break-spaces; overflow-wrap: break-word; user-select: text; text-indent: 0px; position: relative; overflow: hidden;&quot; class=&quot;markup__75297 messageContent_c19a55&quot; id=&quot;message-content-1365700835996209223&quot;&gt;&lt;font style=&quot;font-size: 14px;&quot;&gt;&lt;span style=&quot;border: 0px; font-family: inherit; font-style: inherit; font-weight: inherit; margin: 0px; padding: 0px; vertical-align: baseline; outline: 0px;&quot;&gt;Aeronaves - Aircraft Performance&lt;/span&gt;&lt;/font&gt;&lt;/div&gt;&lt;/div&gt;&lt;/div&gt;&lt;/li&gt;&lt;/ol&gt;" style="text;strokeColor=none;fillColor=none;html=1;align=center;verticalAlign=middle;whiteSpace=wrap;rounded=0;fontSize=16;" parent="1" vertex="1">
          <mxGeometry x="-1038" y="910" width="241" height="30" as="geometry" />
        </mxCell>
        <mxCell id="I2wZMgq4uo3CNsY73Vdn-8" value="Aeroporto - airports" style="text;strokeColor=none;fillColor=none;html=1;align=center;verticalAlign=middle;whiteSpace=wrap;rounded=0;fontSize=16;" parent="1" vertex="1">
          <mxGeometry x="-979" y="1396" width="157" height="30" as="geometry" />
        </mxCell>
        <mxCell id="I2wZMgq4uo3CNsY73Vdn-10" value="&lt;font style=&quot;color: light-dark(rgb(0, 0, 0), rgb(255, 255, 255));&quot; face=&quot;Helvetica&quot;&gt;&lt;span style=&quot;font-style: normal; font-variant-ligatures: normal; font-variant-caps: normal; font-weight: 400; letter-spacing: normal; text-align: left; text-indent: 0px; text-transform: none; word-spacing: 0px; -webkit-text-stroke-width: 0px; white-space: break-spaces; text-decoration-thickness: initial; text-decoration-style: initial; text-decoration-color: initial; display: inline !important; float: none;&quot;&gt;&lt;span&gt;&lt;span style=&quot;background-color: light-dark(#ffffff, var(--ge-dark-color, #121212));&quot;&gt;&lt;span&gt;ID_aeroporto&lt;/span&gt;&lt;/span&gt;&lt;/span&gt;&lt;/span&gt;&lt;/font&gt;&lt;font style=&quot;color: light-dark(rgb(219, 220, 223), rgb(255, 255, 255));&quot; face=&quot;Helvetica&quot;&gt;&lt;span style=&quot;font-style: normal; font-variant-ligatures: normal; font-variant-caps: normal; font-weight: 400; letter-spacing: normal; text-align: left; text-indent: 0px; text-transform: none; word-spacing: 0px; -webkit-text-stroke-width: 0px; white-space: break-spaces; text-decoration-thickness: initial; text-decoration-style: initial; text-decoration-color: initial; display: inline !important; float: none;&quot;&gt;&lt;br&gt;&lt;/span&gt;&lt;/font&gt;&lt;font style=&quot;color: light-dark(rgb(0, 0, 0), rgb(255, 255, 255));&quot; face=&quot;Helvetica&quot;&gt;&lt;span style=&quot;font-style: normal; font-variant-ligatures: normal; font-variant-caps: normal; font-weight: 400; letter-spacing: normal; text-align: left; text-indent: 0px; text-transform: none; word-spacing: 0px; -webkit-text-stroke-width: 0px; white-space: break-spaces; text-decoration-thickness: initial; text-decoration-style: initial; text-decoration-color: initial; display: inline !important; float: none;&quot;&gt;&lt;span&gt;&lt;span style=&quot;background-color: light-dark(#ffffff, var(--ge-dark-color, #121212));&quot;&gt;Nome&lt;br&gt;Cidade&lt;br&gt;PaÃ­s&lt;br&gt;Latitude&lt;br&gt;Longitude&lt;/span&gt;&lt;/span&gt;&lt;/span&gt;&lt;/font&gt;" style="rounded=0;whiteSpace=wrap;html=1;" parent="1" vertex="1">
          <mxGeometry x="-964.5" y="1444" width="120" height="138" as="geometry" />
        </mxCell>
        <mxCell id="I2wZMgq4uo3CNsY73Vdn-11" value="CondiÃ§Ãµes ClimatÃ©ricas - Open-Meteo" style="text;strokeColor=none;fillColor=none;html=1;align=center;verticalAlign=middle;whiteSpace=wrap;rounded=0;fontSize=16;" parent="1" vertex="1">
          <mxGeometry x="-844.5" y="1896" width="215" height="48" as="geometry" />
        </mxCell>
        <mxCell id="I2wZMgq4uo3CNsY73Vdn-58" style="edgeStyle=none;curved=1;rounded=0;orthogonalLoop=1;jettySize=auto;html=1;fontSize=12;startSize=8;endSize=8;" parent="1" source="I2wZMgq4uo3CNsY73Vdn-12" target="I2wZMgq4uo3CNsY73Vdn-52" edge="1">
          <mxGeometry relative="1" as="geometry">
            <Array as="points">
              <mxPoint x="412" y="2023" />
            </Array>
          </mxGeometry>
        </mxCell>
        <mxCell id="I2wZMgq4uo3CNsY73Vdn-12" value="&lt;font face=&quot;Helvetica&quot;&gt;Temperatura&lt;br&gt;Probabilidade de PrecipitaÃ§Ã£o&lt;br&gt;PrecipitaÃ§Ã£o&lt;br&gt;Cobertura total de nuvens&lt;br&gt;Visibilidade&lt;br&gt;Velocidade &lt;br&gt;DireÃ§Ã£o do Vento&lt;/font&gt;" style="rounded=0;whiteSpace=wrap;html=1;" parent="1" vertex="1">
          <mxGeometry x="-829.5" y="1960" width="200" height="160" as="geometry" />
        </mxCell>
        <mxCell id="I2wZMgq4uo3CNsY73Vdn-14" value="&lt;span style=&quot;color: light-dark(rgb(0, 0, 0), rgb(0, 0, 0));&quot;&gt;&lt;span style=&quot;color: rgba(0, 0, 0, 0);&quot;&gt;Destino&lt;/span&gt;&lt;/span&gt;" style="text;strokeColor=none;fillColor=none;html=1;align=center;verticalAlign=middle;whiteSpace=wrap;rounded=0;fontSize=16;" parent="1" vertex="1">
          <mxGeometry x="-455" y="-158" width="60" height="30" as="geometry" />
        </mxCell>
        <mxCell id="I2wZMgq4uo3CNsY73Vdn-50" style="edgeStyle=none;curved=1;rounded=0;orthogonalLoop=1;jettySize=auto;html=1;fontSize=12;startSize=8;endSize=8;" parent="1" source="I2wZMgq4uo3CNsY73Vdn-15" target="I2wZMgq4uo3CNsY73Vdn-49" edge="1">
          <mxGeometry relative="1" as="geometry" />
        </mxCell>
        <mxCell id="I2wZMgq4uo3CNsY73Vdn-59" style="edgeStyle=none;curved=1;rounded=0;orthogonalLoop=1;jettySize=auto;html=1;fontSize=12;startSize=8;endSize=8;" parent="1" source="I2wZMgq4uo3CNsY73Vdn-15" target="I2wZMgq4uo3CNsY73Vdn-52" edge="1">
          <mxGeometry relative="1" as="geometry" />
        </mxCell>
        <mxCell id="I2wZMgq4uo3CNsY73Vdn-15" value="Tratamento" style="rounded=0;whiteSpace=wrap;html=1;" parent="1" vertex="1">
          <mxGeometry x="213" y="564" width="120" height="60" as="geometry" />
        </mxCell>
        <mxCell id="I2wZMgq4uo3CNsY73Vdn-45" style="edgeStyle=none;curved=1;rounded=0;orthogonalLoop=1;jettySize=auto;html=1;fontSize=12;startSize=8;endSize=8;" parent="1" source="I2wZMgq4uo3CNsY73Vdn-17" target="I2wZMgq4uo3CNsY73Vdn-15" edge="1">
          <mxGeometry relative="1" as="geometry" />
        </mxCell>
        <mxCell id="I2wZMgq4uo3CNsY73Vdn-17" value="&lt;font face=&quot;Helvetica&quot;&gt;data_partida&lt;br style=&quot;color: rgb(0, 0, 0); font-style: normal; font-variant-ligatures: normal; font-variant-caps: normal; font-weight: 400; letter-spacing: normal; text-align: center; text-indent: 0px; text-transform: none; white-space: normal; word-spacing: 0px; -webkit-text-stroke-width: 0px; background-color: rgb(255, 255, 255); text-decoration-style: initial; text-decoration-color: initial;&quot;&gt;&lt;span style=&quot;color: rgb(0, 0, 0); font-style: normal; font-variant-ligatures: normal; font-variant-caps: normal; font-weight: 400; letter-spacing: normal; text-align: center; text-indent: 0px; text-transform: none; white-space: normal; word-spacing: 0px; -webkit-text-stroke-width: 0px; background-color: rgb(255, 255, 255); text-decoration-style: initial; text-decoration-color: initial; display: inline !important; float: none;&quot;&gt;id_companhia_aerea&lt;/span&gt;&lt;br style=&quot;color: rgb(0, 0, 0); font-style: normal; font-variant-ligatures: normal; font-variant-caps: normal; font-weight: 400; letter-spacing: normal; text-align: center; text-indent: 0px; text-transform: none; white-space: normal; word-spacing: 0px; -webkit-text-stroke-width: 0px; background-color: rgb(255, 255, 255); text-decoration-style: initial; text-decoration-color: initial;&quot;&gt;&lt;span style=&quot;color: rgb(0, 0, 0); font-style: normal; font-variant-ligatures: normal; font-variant-caps: normal; font-weight: 400; letter-spacing: normal; text-align: center; text-indent: 0px; text-transform: none; white-space: normal; word-spacing: 0px; -webkit-text-stroke-width: 0px; background-color: rgb(255, 255, 255); text-decoration-style: initial; text-decoration-color: initial; display: inline !important; float: none;&quot;&gt;id_voo&lt;/span&gt;&lt;br style=&quot;color: rgb(0, 0, 0); font-style: normal; font-variant-ligatures: normal; font-variant-caps: normal; font-weight: 400; letter-spacing: normal; text-align: center; text-indent: 0px; text-transform: none; white-space: normal; word-spacing: 0px; -webkit-text-stroke-width: 0px; background-color: rgb(255, 255, 255); text-decoration-style: initial; text-decoration-color: initial;&quot;&gt;&lt;span style=&quot;color: rgb(0, 0, 0); font-style: normal; font-variant-ligatures: normal; font-variant-caps: normal; font-weight: 400; letter-spacing: normal; text-align: center; text-indent: 0px; text-transform: none; white-space: normal; word-spacing: 0px; -webkit-text-stroke-width: 0px; background-color: rgb(255, 255, 255); text-decoration-style: initial; text-decoration-color: initial; display: inline !important; float: none;&quot;&gt;aeroporto_origem&lt;/span&gt;&lt;br style=&quot;color: rgb(0, 0, 0); font-style: normal; font-variant-ligatures: normal; font-variant-caps: normal; font-weight: 400; letter-spacing: normal; text-align: center; text-indent: 0px; text-transform: none; white-space: normal; word-spacing: 0px; -webkit-text-stroke-width: 0px; background-color: rgb(255, 255, 255); text-decoration-style: initial; text-decoration-color: initial;&quot;&gt;&lt;span style=&quot;color: rgb(0, 0, 0); font-style: normal; font-variant-ligatures: normal; font-variant-caps: normal; font-weight: 400; letter-spacing: normal; text-align: center; text-indent: 0px; text-transform: none; white-space: normal; word-spacing: 0px; -webkit-text-stroke-width: 0px; background-color: rgb(255, 255, 255); text-decoration-style: initial; text-decoration-color: initial; display: inline !important; float: none;&quot;&gt;aeroporto_destino&lt;/span&gt;&lt;br style=&quot;color: rgb(0, 0, 0); font-style: normal; font-variant-ligatures: normal; font-variant-caps: normal; font-weight: 400; letter-spacing: normal; text-align: center; text-indent: 0px; text-transform: none; white-space: normal; word-spacing: 0px; -webkit-text-stroke-width: 0px; background-color: rgb(255, 255, 255); text-decoration-style: initial; text-decoration-color: initial;&quot;&gt;&lt;span style=&quot;color: rgb(0, 0, 0); font-style: normal; font-variant-ligatures: normal; font-variant-caps: normal; font-weight: 400; letter-spacing: normal; text-align: center; text-indent: 0px; text-transform: none; white-space: normal; word-spacing: 0px; -webkit-text-stroke-width: 0px; background-color: rgb(255, 255, 255); text-decoration-style: initial; text-decoration-color: initial; display: inline !important; float: none;&quot;&gt;hora_partida_real&lt;/span&gt;&lt;br style=&quot;color: rgb(0, 0, 0); font-style: normal; font-variant-ligatures: normal; font-variant-caps: normal; font-weight: 400; letter-spacing: normal; text-align: center; text-indent: 0px; text-transform: none; white-space: normal; word-spacing: 0px; -webkit-text-stroke-width: 0px; background-color: rgb(255, 255, 255); text-decoration-style: initial; text-decoration-color: initial;&quot;&gt;&lt;span style=&quot;color: rgb(0, 0, 0); font-style: normal; font-variant-ligatures: normal; font-variant-caps: normal; font-weight: 400; letter-spacing: normal; text-align: center; text-indent: 0px; text-transform: none; white-space: normal; word-spacing: 0px; -webkit-text-stroke-width: 0px; background-color: rgb(255, 255, 255); text-decoration-style: initial; text-decoration-color: initial; display: inline !important; float: none;&quot;&gt;hora_partida_esperada&lt;/span&gt;&lt;br style=&quot;color: rgb(0, 0, 0); font-style: normal; font-variant-ligatures: normal; font-variant-caps: normal; font-weight: 400; letter-spacing: normal; text-align: center; text-indent: 0px; text-transform: none; white-space: normal; word-spacing: 0px; -webkit-text-stroke-width: 0px; background-color: rgb(255, 255, 255); text-decoration-style: initial; text-decoration-color: initial;&quot;&gt;&lt;span style=&quot;color: rgb(0, 0, 0); font-style: normal; font-variant-ligatures: normal; font-variant-caps: normal; font-weight: 400; letter-spacing: normal; text-align: center; text-indent: 0px; text-transform: none; white-space: normal; word-spacing: 0px; -webkit-text-stroke-width: 0px; background-color: rgb(255, 255, 255); text-decoration-style: initial; text-decoration-color: initial; display: inline !important; float: none;&quot;&gt;hora_chegada_esperada&lt;/span&gt;&lt;br style=&quot;color: rgb(0, 0, 0); font-style: normal; font-variant-ligatures: normal; font-variant-caps: normal; font-weight: 400; letter-spacing: normal; text-align: center; text-indent: 0px; text-transform: none; white-space: normal; word-spacing: 0px; -webkit-text-stroke-width: 0px; background-color: rgb(255, 255, 255); text-decoration-style: initial; text-decoration-color: initial;&quot;&gt;&lt;span style=&quot;color: rgb(0, 0, 0); font-style: normal; font-variant-ligatures: normal; font-variant-caps: normal; font-weight: 400; letter-spacing: normal; text-align: center; text-indent: 0px; text-transform: none; white-space: normal; word-spacing: 0px; -webkit-text-stroke-width: 0px; background-color: rgb(255, 255, 255); text-decoration-style: initial; text-decoration-color: initial; display: inline !important; float: none;&quot;&gt;hora_chegada_real&lt;/span&gt;&lt;span style=&quot;color: rgb(0, 0, 0); font-style: normal; font-variant-ligatures: normal; font-variant-caps: normal; font-weight: 400; letter-spacing: normal; text-align: center; text-indent: 0px; text-transform: none; white-space: normal; word-spacing: 0px; -webkit-text-stroke-width: 0px; background-color: rgb(255, 255, 255); text-decoration-style: initial; text-decoration-color: initial; display: inline !important; float: none;&quot;&gt;&lt;br&gt;&lt;/span&gt;&lt;span style=&quot;color: rgb(0, 0, 0); font-style: normal; font-variant-ligatures: normal; font-variant-caps: normal; font-weight: 400; letter-spacing: normal; text-align: center; text-indent: 0px; text-transform: none; white-space: normal; word-spacing: 0px; -webkit-text-stroke-width: 0px; background-color: rgb(255, 255, 255); text-decoration-style: initial; text-decoration-color: initial; display: inline !important; float: none;&quot;&gt;cancelado&lt;/span&gt;&lt;br style=&quot;color: rgb(0, 0, 0); font-style: normal; font-variant-ligatures: normal; font-variant-caps: normal; font-weight: 400; letter-spacing: normal; text-align: center; text-indent: 0px; text-transform: none; white-space: normal; word-spacing: 0px; -webkit-text-stroke-width: 0px; background-color: rgb(255, 255, 255); text-decoration-style: initial; text-decoration-color: initial;&quot;&gt;&lt;span style=&quot;color: rgb(0, 0, 0); font-style: normal; font-variant-ligatures: normal; font-variant-caps: normal; font-weight: 400; letter-spacing: normal; text-align: center; text-indent: 0px; text-transform: none; white-space: normal; word-spacing: 0px; -webkit-text-stroke-width: 0px; background-color: rgb(255, 255, 255); text-decoration-style: initial; text-decoration-color: initial; display: inline !important; float: none;&quot;&gt;desviado&lt;br&gt;distancia&lt;br&gt;atraso_companhia_aerea&lt;br&gt;atraso_metereologia&lt;br&gt;atraso_SNA&lt;br&gt;atraso_seguranÃ§a&lt;br&gt;atraso_voo_anterior&lt;/span&gt;&lt;/font&gt;" style="rounded=0;whiteSpace=wrap;html=1;" parent="1" vertex="1">
          <mxGeometry x="-395" y="-49" width="174" height="315" as="geometry" />
        </mxCell>
        <mxCell id="I2wZMgq4uo3CNsY73Vdn-19" value="VooRAW" style="text;strokeColor=none;fillColor=none;html=1;align=center;verticalAlign=middle;whiteSpace=wrap;rounded=0;fontSize=16;" parent="1" vertex="1">
          <mxGeometry x="-350" y="-91" width="84" height="30" as="geometry" />
        </mxCell>
        <mxCell id="I2wZMgq4uo3CNsY73Vdn-20" value="Companhia_AereaAUD" style="text;strokeColor=none;fillColor=none;html=1;align=center;verticalAlign=middle;whiteSpace=wrap;rounded=0;fontSize=16;" parent="1" vertex="1">
          <mxGeometry x="-743.5" y="411" width="198" height="30" as="geometry" />
        </mxCell>
        <mxCell id="lTdS-kga0XzyNywZf7Lx-18" style="edgeStyle=orthogonalEdgeStyle;orthogonalLoop=1;jettySize=auto;html=1;" parent="1" source="I2wZMgq4uo3CNsY73Vdn-22" target="lTdS-kga0XzyNywZf7Lx-12" edge="1">
          <mxGeometry relative="1" as="geometry" />
        </mxCell>
        <mxCell id="I2wZMgq4uo3CNsY73Vdn-22" value="&lt;span style=&quot;font-family: &amp;quot;gg sans&amp;quot;, &amp;quot;Noto Sans&amp;quot;, &amp;quot;Helvetica Neue&amp;quot;, Helvetica, Arial, sans-serif; font-style: normal; font-variant-ligatures: normal; font-variant-caps: normal; font-weight: 400; letter-spacing: normal; text-align: left; text-indent: 0px; text-transform: none; word-spacing: 0px; -webkit-text-stroke-width: 0px; white-space: break-spaces; background-color: oklab(0.678888 0.00325716 -0.011175 / 0.12); text-decoration-thickness: initial; text-decoration-style: initial; text-decoration-color: initial; display: inline !important; float: none;&quot;&gt;id_companhia_aerea&lt;br&gt;paÃ­s&lt;br&gt;&lt;/span&gt;&lt;div&gt;&lt;span style=&quot;font-family: &amp;quot;gg sans&amp;quot;, &amp;quot;Noto Sans&amp;quot;, &amp;quot;Helvetica Neue&amp;quot;, Helvetica, Arial, sans-serif; font-style: normal; font-variant-ligatures: normal; font-variant-caps: normal; font-weight: 400; letter-spacing: normal; text-align: left; text-indent: 0px; text-transform: none; word-spacing: 0px; -webkit-text-stroke-width: 0px; white-space: break-spaces; background-color: oklab(0.678888 0.00325716 -0.011175 / 0.12); text-decoration-thickness: initial; text-decoration-style: initial; text-decoration-color: initial; display: inline !important; float: none;&quot;&gt;nome&lt;/span&gt;&lt;/div&gt;&lt;div&gt;&lt;span style=&quot;font-family: &amp;quot;gg sans&amp;quot;, &amp;quot;Noto Sans&amp;quot;, &amp;quot;Helvetica Neue&amp;quot;, Helvetica, Arial, sans-serif; font-style: normal; font-variant-ligatures: normal; font-variant-caps: normal; font-weight: 400; letter-spacing: normal; text-align: left; text-indent: 0px; text-transform: none; word-spacing: 0px; -webkit-text-stroke-width: 0px; white-space: break-spaces; background-color: oklab(0.678888 0.00325716 -0.011175 / 0.12); text-decoration-thickness: initial; text-decoration-style: initial; text-decoration-color: initial; display: inline !important; float: none;&quot;&gt;OperaÃ§Ã£o&lt;br&gt;Etiqueta&lt;br&gt;Utilizador&lt;/span&gt;&lt;/div&gt;" style="rounded=0;whiteSpace=wrap;html=1;fontSize=12;" parent="1" vertex="1">
          <mxGeometry x="-718" y="458" width="135.5" height="141" as="geometry" />
        </mxCell>
        <mxCell id="lTdS-kga0XzyNywZf7Lx-15" style="edgeStyle=orthogonalEdgeStyle;orthogonalLoop=1;jettySize=auto;html=1;" parent="1" source="I2wZMgq4uo3CNsY73Vdn-24" target="lTdS-kga0XzyNywZf7Lx-11" edge="1">
          <mxGeometry relative="1" as="geometry" />
        </mxCell>
        <mxCell id="I2wZMgq4uo3CNsY73Vdn-24" value="&lt;div&gt;model&lt;/div&gt;&lt;div&gt;fuel&lt;/div&gt;&lt;div&gt;engine type&lt;/div&gt;&lt;div&gt;wingspan&lt;/div&gt;&lt;div&gt;gross weight&lt;/div&gt;&lt;div&gt;company&lt;/div&gt;&lt;div&gt;OperaÃ§Ã£o&lt;/div&gt;&lt;div&gt;Etiqueta&lt;br&gt;Utilizador&lt;/div&gt;" style="rounded=0;whiteSpace=wrap;html=1;" parent="1" vertex="1">
          <mxGeometry x="-718" y="968" width="160" height="173" as="geometry" />
        </mxCell>
        <mxCell id="lTdS-kga0XzyNywZf7Lx-3" style="edgeStyle=orthogonalEdgeStyle;orthogonalLoop=1;jettySize=auto;html=1;" parent="1" source="I2wZMgq4uo3CNsY73Vdn-25" target="lTdS-kga0XzyNywZf7Lx-1" edge="1">
          <mxGeometry relative="1" as="geometry" />
        </mxCell>
        <mxCell id="I2wZMgq4uo3CNsY73Vdn-25" value="&lt;font style=&quot;color: light-dark(rgb(0, 0, 0), rgb(255, 255, 255));&quot; face=&quot;Helvetica&quot;&gt;&lt;span style=&quot;font-style: normal; font-variant-ligatures: normal; font-variant-caps: normal; font-weight: 400; letter-spacing: normal; text-align: left; text-indent: 0px; text-transform: none; word-spacing: 0px; -webkit-text-stroke-width: 0px; white-space: break-spaces; text-decoration-thickness: initial; text-decoration-style: initial; text-decoration-color: initial; display: inline !important; float: none;&quot;&gt;ID_aeroporto&lt;br&gt;Nome&lt;br&gt;Cidade&lt;br&gt;PaÃ­s&lt;br&gt;Latitude&lt;br&gt;&lt;/span&gt;&lt;/font&gt;&lt;div&gt;&lt;font style=&quot;color: light-dark(rgb(0, 0, 0), rgb(255, 255, 255));&quot; face=&quot;Helvetica&quot;&gt;&lt;span style=&quot;font-style: normal; font-variant-ligatures: normal; font-variant-caps: normal; font-weight: 400; letter-spacing: normal; text-align: left; text-indent: 0px; text-transform: none; word-spacing: 0px; -webkit-text-stroke-width: 0px; white-space: break-spaces; text-decoration-thickness: initial; text-decoration-style: initial; text-decoration-color: initial; display: inline !important; float: none;&quot;&gt;Longitude&lt;/span&gt;&lt;/font&gt;&lt;/div&gt;&lt;div&gt;&lt;div&gt;OperaÃ§Ã£o&lt;/div&gt;&lt;div&gt;Etiqueta&lt;br&gt;Utilizador&lt;/div&gt;&lt;/div&gt;&lt;div&gt;&lt;font style=&quot;color: light-dark(rgb(219, 220, 223), rgb(255, 255, 255));&quot; face=&quot;Helvetica&quot;&gt;&lt;span style=&quot;font-style: normal; font-variant-ligatures: normal; font-variant-caps: normal; font-weight: 400; letter-spacing: normal; text-align: left; text-indent: 0px; text-transform: none; word-spacing: 0px; -webkit-text-stroke-width: 0px; white-space: break-spaces; text-decoration-thickness: initial; text-decoration-style: initial; text-decoration-color: initial; display: inline !important; float: none;&quot;&gt;&lt;br&gt;&lt;/span&gt;&lt;/font&gt;&lt;/div&gt;" style="rounded=0;whiteSpace=wrap;html=1;" parent="1" vertex="1">
          <mxGeometry x="-667.5" y="1434" width="120" height="179" as="geometry" />
        </mxCell>
        <mxCell id="I2wZMgq4uo3CNsY73Vdn-26" value="AeroportoRAW" style="text;strokeColor=none;fillColor=none;html=1;align=center;verticalAlign=middle;whiteSpace=wrap;rounded=0;fontSize=16;" parent="1" vertex="1">
          <mxGeometry x="-385.5" y="1401" width="114" height="25" as="geometry" />
        </mxCell>
        <mxCell id="I2wZMgq4uo3CNsY73Vdn-27" value="AeronaveAUD" style="text;strokeColor=none;fillColor=none;html=1;align=center;verticalAlign=middle;whiteSpace=wrap;rounded=0;fontSize=16;" parent="1" vertex="1">
          <mxGeometry x="-699" y="918" width="132" height="30" as="geometry" />
        </mxCell>
        <mxCell id="I2wZMgq4uo3CNsY73Vdn-30" style="edgeStyle=none;curved=1;rounded=0;orthogonalLoop=1;jettySize=auto;html=1;entryX=0.035;entryY=0.428;entryDx=0;entryDy=0;entryPerimeter=0;fontSize=12;startSize=8;endSize=8;" parent="1" source="I2wZMgq4uo3CNsY73Vdn-10" target="I2wZMgq4uo3CNsY73Vdn-25" edge="1">
          <mxGeometry relative="1" as="geometry" />
        </mxCell>
        <mxCell id="I2wZMgq4uo3CNsY73Vdn-46" style="edgeStyle=none;curved=1;rounded=0;orthogonalLoop=1;jettySize=auto;html=1;fontSize=12;startSize=8;endSize=8;" parent="1" source="I2wZMgq4uo3CNsY73Vdn-31" target="I2wZMgq4uo3CNsY73Vdn-15" edge="1">
          <mxGeometry relative="1" as="geometry" />
        </mxCell>
        <mxCell id="I2wZMgq4uo3CNsY73Vdn-31" value="&lt;span style=&quot;font-family: &amp;quot;gg sans&amp;quot;, &amp;quot;Noto Sans&amp;quot;, &amp;quot;Helvetica Neue&amp;quot;, Helvetica, Arial, sans-serif; font-style: normal; font-variant-ligatures: normal; font-variant-caps: normal; font-weight: 400; letter-spacing: normal; text-align: left; text-indent: 0px; text-transform: none; word-spacing: 0px; -webkit-text-stroke-width: 0px; white-space: break-spaces; background-color: oklab(0.678888 0.00325716 -0.011175 / 0.12); text-decoration-thickness: initial; text-decoration-style: initial; text-decoration-color: initial; display: inline !important; float: none;&quot;&gt;id_companhia_aerea&lt;br&gt;paÃ­s&lt;br&gt;&lt;/span&gt;&lt;div&gt;&lt;span style=&quot;font-family: &amp;quot;gg sans&amp;quot;, &amp;quot;Noto Sans&amp;quot;, &amp;quot;Helvetica Neue&amp;quot;, Helvetica, Arial, sans-serif; font-style: normal; font-variant-ligatures: normal; font-variant-caps: normal; font-weight: 400; letter-spacing: normal; text-align: left; text-indent: 0px; text-transform: none; word-spacing: 0px; -webkit-text-stroke-width: 0px; white-space: break-spaces; background-color: oklab(0.678888 0.00325716 -0.011175 / 0.12); text-decoration-thickness: initial; text-decoration-style: initial; text-decoration-color: initial; display: inline !important; float: none;&quot;&gt;nome&lt;/span&gt;&lt;/div&gt;" style="rounded=0;whiteSpace=wrap;html=1;fontSize=12;" parent="1" vertex="1">
          <mxGeometry x="-177.5" y="401" width="152" height="118" as="geometry" />
        </mxCell>
        <mxCell id="I2wZMgq4uo3CNsY73Vdn-32" value="&lt;span style=&quot;font-family: &amp;quot;gg sans&amp;quot;, &amp;quot;Noto Sans&amp;quot;, &amp;quot;Helvetica Neue&amp;quot;, Helvetica, Arial, sans-serif; font-style: normal; font-variant-ligatures: normal; font-variant-caps: normal; font-weight: 400; letter-spacing: normal; text-align: left; text-indent: 0px; text-transform: none; word-spacing: 0px; -webkit-text-stroke-width: 0px; white-space: break-spaces; background-color: oklab(0.678888 0.00325716 -0.011175 / 0.12); text-decoration-thickness: initial; text-decoration-style: initial; text-decoration-color: initial; display: inline !important; float: none;&quot;&gt;id_companhia_aerea&lt;br&gt;paÃ­s&lt;br&gt;&lt;/span&gt;&lt;div&gt;&lt;span style=&quot;font-family: &amp;quot;gg sans&amp;quot;, &amp;quot;Noto Sans&amp;quot;, &amp;quot;Helvetica Neue&amp;quot;, Helvetica, Arial, sans-serif; font-style: normal; font-variant-ligatures: normal; font-variant-caps: normal; font-weight: 400; letter-spacing: normal; text-align: left; text-indent: 0px; text-transform: none; word-spacing: 0px; -webkit-text-stroke-width: 0px; white-space: break-spaces; background-color: oklab(0.678888 0.00325716 -0.011175 / 0.12); text-decoration-thickness: initial; text-decoration-style: initial; text-decoration-color: initial; display: inline !important; float: none;&quot;&gt;nome&lt;/span&gt;&lt;/div&gt;&lt;div&gt;&lt;span style=&quot;font-family: &amp;quot;gg sans&amp;quot;, &amp;quot;Noto Sans&amp;quot;, &amp;quot;Helvetica Neue&amp;quot;, Helvetica, Arial, sans-serif; font-style: normal; font-variant-ligatures: normal; font-variant-caps: normal; font-weight: 400; letter-spacing: normal; text-align: left; text-indent: 0px; text-transform: none; word-spacing: 0px; -webkit-text-stroke-width: 0px; white-space: break-spaces; background-color: oklab(0.678888 0.00325716 -0.011175 / 0.12); text-decoration-thickness: initial; text-decoration-style: initial; text-decoration-color: initial; display: inline !important; float: none;&quot;&gt;ModificaÃ§Ã£o&lt;br&gt;DataHoraModificaÃ§Ã£o&lt;/span&gt;&lt;/div&gt;" style="rounded=0;whiteSpace=wrap;html=1;fontSize=12;" parent="1" vertex="1">
          <mxGeometry x="-171" y="624" width="139" height="118" as="geometry" />
        </mxCell>
        <mxCell id="I2wZMgq4uo3CNsY73Vdn-47" style="edgeStyle=none;curved=1;rounded=0;orthogonalLoop=1;jettySize=auto;html=1;entryX=0.5;entryY=1;entryDx=0;entryDy=0;fontSize=12;startSize=8;endSize=8;" parent="1" source="I2wZMgq4uo3CNsY73Vdn-33" target="I2wZMgq4uo3CNsY73Vdn-15" edge="1">
          <mxGeometry relative="1" as="geometry" />
        </mxCell>
        <mxCell id="I2wZMgq4uo3CNsY73Vdn-33" value="&lt;div&gt;Modelo&lt;/div&gt;&lt;div&gt;Combustivel&lt;/div&gt;&lt;div&gt;Tipo_motor&lt;/div&gt;&lt;div&gt;Envergadura_asas&lt;/div&gt;&lt;div&gt;Peso_bruto&lt;/div&gt;&lt;div&gt;Fabricante&lt;/div&gt;" style="rounded=0;whiteSpace=wrap;html=1;" parent="1" vertex="1">
          <mxGeometry x="-161" y="857" width="160" height="173" as="geometry" />
        </mxCell>
        <mxCell id="I2wZMgq4uo3CNsY73Vdn-48" style="edgeStyle=none;curved=1;rounded=0;orthogonalLoop=1;jettySize=auto;html=1;entryX=0.5;entryY=1;entryDx=0;entryDy=0;fontSize=12;startSize=8;endSize=8;exitX=1.012;exitY=0.45;exitDx=0;exitDy=0;exitPerimeter=0;" parent="1" source="I2wZMgq4uo3CNsY73Vdn-35" target="I2wZMgq4uo3CNsY73Vdn-15" edge="1">
          <mxGeometry relative="1" as="geometry" />
        </mxCell>
        <mxCell id="I2wZMgq4uo3CNsY73Vdn-35" value="&lt;font style=&quot;color: light-dark(rgb(0, 0, 0), rgb(237, 237, 237));&quot; face=&quot;Helvetica&quot;&gt;&lt;span style=&quot;font-style: normal; font-variant-ligatures: normal; font-variant-caps: normal; font-weight: 400; letter-spacing: normal; text-align: left; text-indent: 0px; text-transform: none; word-spacing: 0px; -webkit-text-stroke-width: 0px; white-space: break-spaces; text-decoration-thickness: initial; text-decoration-style: initial; text-decoration-color: initial; display: inline !important; float: none;&quot;&gt;ID_aeroporto&lt;br&gt;Nome&lt;br&gt;Cidade&lt;br&gt;PaÃ­s&lt;br&gt;Latitude&lt;br&gt;&lt;/span&gt;&lt;/font&gt;&lt;div&gt;&lt;font style=&quot;color: light-dark(rgb(0, 0, 0), rgb(255, 255, 255));&quot; face=&quot;Helvetica&quot;&gt;&lt;span style=&quot;font-style: normal; font-variant-ligatures: normal; font-variant-caps: normal; font-weight: 400; letter-spacing: normal; text-align: left; text-indent: 0px; text-transform: none; word-spacing: 0px; -webkit-text-stroke-width: 0px; white-space: break-spaces; text-decoration-thickness: initial; text-decoration-style: initial; text-decoration-color: initial; display: inline !important; float: none;&quot;&gt;Longitude&lt;/span&gt;&lt;/font&gt;&lt;/div&gt;&lt;div&gt;&lt;font style=&quot;color: light-dark(rgb(219, 220, 223), rgb(255, 255, 255));&quot; face=&quot;Helvetica&quot;&gt;&lt;span style=&quot;font-style: normal; font-variant-ligatures: normal; font-variant-caps: normal; font-weight: 400; letter-spacing: normal; text-align: left; text-indent: 0px; text-transform: none; word-spacing: 0px; -webkit-text-stroke-width: 0px; white-space: break-spaces; text-decoration-thickness: initial; text-decoration-style: initial; text-decoration-color: initial; display: inline !important; float: none;&quot;&gt;&lt;br&gt;&lt;/span&gt;&lt;/font&gt;&lt;/div&gt;" style="rounded=0;whiteSpace=wrap;html=1;" parent="1" vertex="1">
          <mxGeometry x="-129" y="1324" width="120" height="179" as="geometry" />
        </mxCell>
        <mxCell id="I2wZMgq4uo3CNsY73Vdn-36" value="&lt;font style=&quot;color: light-dark(rgb(0, 0, 0), rgb(237, 237, 237));&quot; face=&quot;Helvetica&quot;&gt;&lt;span style=&quot;font-style: normal; font-variant-ligatures: normal; font-variant-caps: normal; font-weight: 400; letter-spacing: normal; text-align: left; text-indent: 0px; text-transform: none; word-spacing: 0px; -webkit-text-stroke-width: 0px; white-space: break-spaces; text-decoration-thickness: initial; text-decoration-style: initial; text-decoration-color: initial; display: inline !important; float: none;&quot;&gt;ID_aeroporto&lt;br&gt;Nome&lt;br&gt;Cidade&lt;br&gt;PaÃ­s&lt;br&gt;Latitude&lt;br&gt;&lt;/span&gt;&lt;/font&gt;&lt;div&gt;&lt;font style=&quot;color: light-dark(rgb(0, 0, 0), rgb(255, 255, 255));&quot; face=&quot;Helvetica&quot;&gt;&lt;span style=&quot;font-style: normal; font-variant-ligatures: normal; font-variant-caps: normal; font-weight: 400; letter-spacing: normal; text-align: left; text-indent: 0px; text-transform: none; word-spacing: 0px; -webkit-text-stroke-width: 0px; white-space: break-spaces; text-decoration-thickness: initial; text-decoration-style: initial; text-decoration-color: initial; display: inline !important; float: none;&quot;&gt;Longitude&lt;/span&gt;&lt;/font&gt;&lt;/div&gt;&lt;div&gt;&lt;div&gt;ModificaÃ§Ã£o&lt;/div&gt;&lt;div&gt;DataHoraModificaÃ§Ã£o&lt;/div&gt;&lt;/div&gt;" style="rounded=0;whiteSpace=wrap;html=1;" parent="1" vertex="1">
          <mxGeometry x="-129" y="1608" width="144" height="179" as="geometry" />
        </mxCell>
        <mxCell id="I2wZMgq4uo3CNsY73Vdn-37" value="&lt;div&gt;Modelo&lt;/div&gt;&lt;div&gt;Combustivel&lt;/div&gt;&lt;div&gt;Tipo_motor&lt;/div&gt;&lt;div&gt;Envergadura_asas&lt;/div&gt;&lt;div&gt;Peso_bruto&lt;/div&gt;&lt;div&gt;Fabricante&lt;br&gt;ModificaÃ§Ã£o&lt;/div&gt;&lt;div&gt;DataHoraModificaÃ§Ã£o&lt;/div&gt;" style="rounded=0;whiteSpace=wrap;html=1;" parent="1" vertex="1">
          <mxGeometry x="-156" y="1090" width="160" height="173" as="geometry" />
        </mxCell>
        <mxCell id="I2wZMgq4uo3CNsY73Vdn-49" value="&lt;div&gt;id_voo&lt;/div&gt;&lt;div&gt;aeroporto_chegada&lt;br&gt;DataHora&lt;/div&gt;&lt;div&gt;CompanhiaAerea&lt;/div&gt;&lt;div&gt;Tipo&lt;/div&gt;&lt;div&gt;DescriÃ§Ã£oErro&lt;/div&gt;" style="rounded=0;whiteSpace=wrap;html=1;" parent="1" vertex="1">
          <mxGeometry x="516" y="-29" width="120" height="222" as="geometry" />
        </mxCell>
        <mxCell id="I2wZMgq4uo3CNsY73Vdn-51" value="Erro" style="text;strokeColor=none;fillColor=none;html=1;align=center;verticalAlign=middle;whiteSpace=wrap;rounded=0;fontSize=16;" parent="1" vertex="1">
          <mxGeometry x="314" y="424" width="60" height="30" as="geometry" />
        </mxCell>
        <mxCell id="I2wZMgq4uo3CNsY73Vdn-52" value="&lt;font face=&quot;Helvetica&quot;&gt;nr_voo&lt;br&gt;&amp;nbsp;&amp;nbsp;&amp;nbsp; data_partida&lt;br&gt;&amp;nbsp;&amp;nbsp;&amp;nbsp; nome_companhia_aerea&lt;br&gt;&amp;nbsp;&amp;nbsp;&amp;nbsp; id_companhia_aerea&lt;br&gt;&amp;nbsp;&amp;nbsp;&amp;nbsp; pais_companhia_aerea&lt;br&gt;&amp;nbsp;&amp;nbsp;&amp;nbsp; aeroporto_origem&lt;br&gt;&amp;nbsp;&amp;nbsp;&amp;nbsp; nome_aeroporto_origem&lt;br&gt;&amp;nbsp;&amp;nbsp;&amp;nbsp; pais_aeroporto_origem&lt;br&gt;&amp;nbsp;&amp;nbsp;&amp;nbsp; cidade_aeroporto_origem&lt;br&gt;&amp;nbsp;&amp;nbsp;&amp;nbsp; latitude_aeroporto_origem&lt;br&gt;&amp;nbsp;&amp;nbsp;&amp;nbsp; longitude_aeroporto_origem&lt;br&gt;&amp;nbsp;&amp;nbsp;&amp;nbsp; aeroporto_destino&lt;br&gt;&amp;nbsp;&amp;nbsp;&amp;nbsp; nome_aeroporto_destino&lt;br&gt;&amp;nbsp;&amp;nbsp;&amp;nbsp; pais_aeroporto_destino&lt;br&gt;&amp;nbsp;&amp;nbsp;&amp;nbsp; cidade_aeroporto_destino&lt;br&gt;&amp;nbsp;&amp;nbsp;&amp;nbsp; latitude_aeroporto_destino&lt;br&gt;&amp;nbsp;&amp;nbsp;&amp;nbsp; longitude_aeroporto_destino&lt;br&gt;&amp;nbsp;&amp;nbsp;&amp;nbsp; hora_partida_real&lt;br&gt;&amp;nbsp;&amp;nbsp;&amp;nbsp; hora_partida_esperada&lt;br&gt;&amp;nbsp;&amp;nbsp;&amp;nbsp; hora_chegada_real&lt;br&gt;&amp;nbsp;&amp;nbsp;&amp;nbsp; hora_chegada_esperada&lt;br&gt;&amp;nbsp;&amp;nbsp;&amp;nbsp; cancelado&lt;br&gt;&amp;nbsp;&amp;nbsp;&amp;nbsp; desviado&lt;br&gt;&amp;nbsp;&amp;nbsp;&amp;nbsp; distancia&lt;br&gt;&amp;nbsp;&amp;nbsp;&amp;nbsp; atraso_companhia_aerea&lt;br&gt;&amp;nbsp;&amp;nbsp;&amp;nbsp; atraso_metereologia&lt;br&gt;&amp;nbsp;&amp;nbsp;&amp;nbsp; atraso_SNA&lt;br&gt;&amp;nbsp;&amp;nbsp;&amp;nbsp; atraso_seguranca&lt;br&gt;&amp;nbsp;&amp;nbsp;&amp;nbsp; atraso_voo_anterior&lt;br&gt;&amp;nbsp;&amp;nbsp;&amp;nbsp; Modelo_AviÃ£o,&lt;br&gt;&amp;nbsp;&amp;nbsp;&amp;nbsp; Fabricante&lt;br&gt;&amp;nbsp;&amp;nbsp;&amp;nbsp; avaliacao&lt;/font&gt;" style="rounded=0;whiteSpace=wrap;html=1;" parent="1" vertex="1">
          <mxGeometry x="445" y="290" width="236" height="685" as="geometry" />
        </mxCell>
        <mxCell id="I2wZMgq4uo3CNsY73Vdn-53" value="ViagemRDY" style="text;strokeColor=none;fillColor=none;html=1;align=center;verticalAlign=middle;whiteSpace=wrap;rounded=0;fontSize=16;" parent="1" vertex="1">
          <mxGeometry x="567" y="250" width="114" height="32" as="geometry" />
        </mxCell>
        <mxCell id="I2wZMgq4uo3CNsY73Vdn-54" value="ViagemQUA" style="text;strokeColor=none;fillColor=none;html=1;align=center;verticalAlign=middle;whiteSpace=wrap;rounded=0;fontSize=16;" parent="1" vertex="1">
          <mxGeometry x="533" y="-70" width="60" height="30" as="geometry" />
        </mxCell>
        <mxCell id="I2wZMgq4uo3CNsY73Vdn-55" value="Companhia_Aerea" style="text;strokeColor=none;fillColor=none;html=1;align=center;verticalAlign=middle;whiteSpace=wrap;rounded=0;fontSize=16;" parent="1" vertex="1">
          <mxGeometry x="-188.5" y="363" width="163" height="30" as="geometry" />
        </mxCell>
        <mxCell id="I2wZMgq4uo3CNsY73Vdn-56" value="Aeronave" style="text;strokeColor=none;fillColor=none;html=1;align=center;verticalAlign=middle;whiteSpace=wrap;rounded=0;fontSize=16;" parent="1" vertex="1">
          <mxGeometry x="-114" y="814" width="60" height="30" as="geometry" />
        </mxCell>
        <mxCell id="I2wZMgq4uo3CNsY73Vdn-57" value="Aeroporto" style="text;strokeColor=none;fillColor=none;html=1;align=center;verticalAlign=middle;whiteSpace=wrap;rounded=0;fontSize=16;" parent="1" vertex="1">
          <mxGeometry x="-99" y="1283" width="60" height="30" as="geometry" />
        </mxCell>
        <mxCell id="I2wZMgq4uo3CNsY73Vdn-60" value="Sucesso" style="text;strokeColor=none;fillColor=none;html=1;align=center;verticalAlign=middle;whiteSpace=wrap;rounded=0;fontSize=16;" parent="1" vertex="1">
          <mxGeometry x="352" y="608" width="60" height="30" as="geometry" />
        </mxCell>
        <mxCell id="I2wZMgq4uo3CNsY73Vdn-61" value="&lt;div&gt;Companhia_AereaHST&lt;/div&gt;" style="text;strokeColor=none;fillColor=none;html=1;align=center;verticalAlign=middle;whiteSpace=wrap;rounded=0;fontSize=16;" parent="1" vertex="1">
          <mxGeometry x="-177.5" y="585" width="163" height="30" as="geometry" />
        </mxCell>
        <mxCell id="I2wZMgq4uo3CNsY73Vdn-62" value="AeronaveHST" style="text;strokeColor=none;fillColor=none;html=1;align=center;verticalAlign=middle;whiteSpace=wrap;rounded=0;fontSize=16;" parent="1" vertex="1">
          <mxGeometry x="-111" y="1055" width="60" height="30" as="geometry" />
        </mxCell>
        <mxCell id="I2wZMgq4uo3CNsY73Vdn-63" value="AeroportoHST" style="text;strokeColor=none;fillColor=none;html=1;align=center;verticalAlign=middle;whiteSpace=wrap;rounded=0;fontSize=16;" parent="1" vertex="1">
          <mxGeometry x="-99" y="1552" width="60" height="30" as="geometry" />
        </mxCell>
        <mxCell id="I2wZMgq4uo3CNsY73Vdn-64" value="&lt;div&gt;id_voo&lt;/div&gt;&lt;div&gt;DataHora&lt;/div&gt;&lt;div&gt;Tipo&lt;/div&gt;&lt;div&gt;DescriÃ§Ã£o&lt;/div&gt;" style="rounded=0;whiteSpace=wrap;html=1;" parent="1" vertex="1">
          <mxGeometry x="521" y="1189" width="120" height="156" as="geometry" />
        </mxCell>
        <mxCell id="I2wZMgq4uo3CNsY73Vdn-65" value="OperaÃ§ÃµesLOG" style="text;strokeColor=none;fillColor=none;html=1;align=center;verticalAlign=middle;whiteSpace=wrap;rounded=0;fontSize=16;" parent="1" vertex="1">
          <mxGeometry x="551" y="1141" width="60" height="30" as="geometry" />
        </mxCell>
        <mxCell id="lTdS-kga0XzyNywZf7Lx-24" style="edgeStyle=orthogonalEdgeStyle;orthogonalLoop=1;jettySize=auto;html=1;" parent="1" source="JLLTlDv_x7SUqv3Ecep4-1" target="lTdS-kga0XzyNywZf7Lx-22" edge="1">
          <mxGeometry relative="1" as="geometry" />
        </mxCell>
        <mxCell id="JLLTlDv_x7SUqv3Ecep4-1" value="&lt;div style=&quot;font-weight: normal; line-height: 19px; white-space: pre;&quot;&gt;&lt;div&gt;&lt;font face=&quot;Helvetica&quot;&gt;&lt;span style=&quot;background-color: light-dark(#ffffff, var(--ge-dark-color, #121212)); color: light-dark(rgb(0, 0, 0), rgb(237, 237, 237));&quot;&gt;Airline Name&lt;/span&gt;&lt;/font&gt;&lt;/div&gt;&lt;div&gt;&lt;div style=&quot;font-weight: normal; line-height: 19px; white-space: pre; color: rgb(230, 237, 243);&quot;&gt;&lt;div&gt;&lt;font face=&quot;Helvetica&quot;&gt;&lt;span style=&quot;color: light-dark(rgb(0, 0, 0), rgb(255, 255, 255));&quot;&gt;Overall_Rating&lt;/span&gt;&lt;/font&gt;&lt;/div&gt;&lt;/div&gt;&lt;font face=&quot;Helvetica&quot;&gt;&lt;span style=&quot;background-color: light-dark(#ffffff, var(--ge-dark-color, #121212)); color: rgba(0, 0, 0, 0);&quot;&gt;&lt;br&gt;&lt;/span&gt;&lt;/font&gt;&lt;/div&gt;&lt;/div&gt;" style="rounded=0;whiteSpace=wrap;html=1;" parent="1" vertex="1">
          <mxGeometry x="-794" y="2258" width="120" height="92" as="geometry" />
        </mxCell>
        <mxCell id="JLLTlDv_x7SUqv3Ecep4-2" value="&lt;font style=&quot;font-size: 16px;&quot;&gt;Airline reviews&lt;/font&gt;" style="text;html=1;align=center;verticalAlign=middle;whiteSpace=wrap;rounded=0;" parent="1" vertex="1">
          <mxGeometry x="-800" y="2228" width="126" height="30" as="geometry" />
        </mxCell>
        <mxCell id="JLLTlDv_x7SUqv3Ecep4-7" style="edgeStyle=orthogonalEdgeStyle;rounded=0;orthogonalLoop=1;jettySize=auto;html=1;entryX=0.5;entryY=1;entryDx=0;entryDy=0;" parent="1" source="JLLTlDv_x7SUqv3Ecep4-3" target="I2wZMgq4uo3CNsY73Vdn-15" edge="1">
          <mxGeometry relative="1" as="geometry" />
        </mxCell>
        <mxCell id="JLLTlDv_x7SUqv3Ecep4-3" value="&lt;div style=&quot;font-weight: normal; line-height: 19px; white-space: pre;&quot;&gt;&lt;div&gt;&lt;font face=&quot;Helvetica&quot;&gt;&lt;span style=&quot;background-color: light-dark(#ffffff, var(--ge-dark-color, #121212)); color: light-dark(rgb(0, 0, 0), rgb(255, 255, 255));&quot;&gt;Nome_Companhia_Aerea&lt;/span&gt;&lt;/font&gt;&lt;/div&gt;&lt;div&gt;&lt;div style=&quot;font-weight: normal; line-height: 19px; white-space: pre; color: rgb(230, 237, 243);&quot;&gt;&lt;div&gt;&lt;font face=&quot;Helvetica&quot;&gt;&lt;span style=&quot;color: light-dark(rgb(0, 0, 0), rgb(255, 255, 255));&quot;&gt;AvaliaÃ§Ã£o&lt;/span&gt;&lt;/font&gt;&lt;/div&gt;&lt;/div&gt;&lt;font face=&quot;Helvetica&quot;&gt;&lt;span style=&quot;background-color: light-dark(#ffffff, var(--ge-dark-color, #121212)); color: rgba(0, 0, 0, 0);&quot;&gt;&lt;br&gt;&lt;/span&gt;&lt;/font&gt;&lt;/div&gt;&lt;/div&gt;" style="rounded=0;whiteSpace=wrap;html=1;" parent="1" vertex="1">
          <mxGeometry x="-84" y="2272" width="209" height="92" as="geometry" />
        </mxCell>
        <mxCell id="JLLTlDv_x7SUqv3Ecep4-4" value="&lt;font style=&quot;font-size: 16px;&quot;&gt;CompanhiaAereaCritica&lt;/font&gt;" style="text;html=1;align=center;verticalAlign=middle;whiteSpace=wrap;rounded=0;" parent="1" vertex="1">
          <mxGeometry x="-87.75" y="2231" width="216.5" height="30" as="geometry" />
        </mxCell>
        <mxCell id="JLLTlDv_x7SUqv3Ecep4-9" style="edgeStyle=orthogonalEdgeStyle;rounded=0;orthogonalLoop=1;jettySize=auto;html=1;" parent="1" source="JLLTlDv_x7SUqv3Ecep4-8" target="I2wZMgq4uo3CNsY73Vdn-24" edge="1">
          <mxGeometry relative="1" as="geometry" />
        </mxCell>
        <mxCell id="JLLTlDv_x7SUqv3Ecep4-8" value="&lt;div&gt;model&lt;/div&gt;&lt;div&gt;fuel&lt;/div&gt;&lt;div&gt;engine type&lt;/div&gt;&lt;div&gt;wingspan&lt;/div&gt;&lt;div&gt;gross weight&lt;/div&gt;&lt;div&gt;company&lt;/div&gt;" style="rounded=0;whiteSpace=wrap;html=1;" parent="1" vertex="1">
          <mxGeometry x="-1014.5" y="968" width="160" height="173" as="geometry" />
        </mxCell>
        <mxCell id="lTdS-kga0XzyNywZf7Lx-1" value="&lt;font style=&quot;color: light-dark(rgb(0, 0, 0), rgb(255, 255, 255));&quot; face=&quot;Helvetica&quot;&gt;&lt;span style=&quot;font-style: normal; font-variant-ligatures: normal; font-variant-caps: normal; font-weight: 400; letter-spacing: normal; text-align: left; text-indent: 0px; text-transform: none; word-spacing: 0px; -webkit-text-stroke-width: 0px; white-space: break-spaces; text-decoration-thickness: initial; text-decoration-style: initial; text-decoration-color: initial; display: inline !important; float: none;&quot;&gt;ID_aeroporto&lt;br&gt;Nome&lt;br&gt;Cidade&lt;br&gt;PaÃ­s&lt;br&gt;Latitude&lt;br&gt;&lt;/span&gt;&lt;/font&gt;&lt;div&gt;&lt;font style=&quot;color: light-dark(rgb(0, 0, 0), rgb(255, 255, 255));&quot; face=&quot;Helvetica&quot;&gt;&lt;span style=&quot;font-style: normal; font-variant-ligatures: normal; font-variant-caps: normal; font-weight: 400; letter-spacing: normal; text-align: left; text-indent: 0px; text-transform: none; word-spacing: 0px; -webkit-text-stroke-width: 0px; white-space: break-spaces; text-decoration-thickness: initial; text-decoration-style: initial; text-decoration-color: initial; display: inline !important; float: none;&quot;&gt;Longitude&lt;/span&gt;&lt;/font&gt;&lt;/div&gt;&lt;div&gt;&lt;div&gt;OperaÃ§Ã£o&lt;/div&gt;&lt;div&gt;Etiqueta&lt;br&gt;Utilizador&lt;/div&gt;&lt;/div&gt;&lt;div&gt;&lt;font style=&quot;color: light-dark(rgb(219, 220, 223), rgb(255, 255, 255));&quot; face=&quot;Helvetica&quot;&gt;&lt;span style=&quot;font-style: normal; font-variant-ligatures: normal; font-variant-caps: normal; font-weight: 400; letter-spacing: normal; text-align: left; text-indent: 0px; text-transform: none; word-spacing: 0px; -webkit-text-stroke-width: 0px; white-space: break-spaces; text-decoration-thickness: initial; text-decoration-style: initial; text-decoration-color: initial; display: inline !important; float: none;&quot;&gt;&lt;br&gt;&lt;/span&gt;&lt;/font&gt;&lt;/div&gt;" style="rounded=0;whiteSpace=wrap;html=1;" parent="1" vertex="1">
          <mxGeometry x="-389.5" y="1434" width="120" height="179" as="geometry" />
        </mxCell>
        <mxCell id="lTdS-kga0XzyNywZf7Lx-2" value="AeroportoAUD" style="text;strokeColor=none;fillColor=none;html=1;align=center;verticalAlign=middle;whiteSpace=wrap;rounded=0;fontSize=16;" parent="1" vertex="1">
          <mxGeometry x="-654.5" y="1402" width="114" height="25" as="geometry" />
        </mxCell>
        <mxCell id="lTdS-kga0XzyNywZf7Lx-7" value="" style="endArrow=classic;html=1;exitX=1;exitY=0.5;exitDx=0;exitDy=0;entryX=0;entryY=0.5;entryDx=0;entryDy=0;" parent="1" source="lTdS-kga0XzyNywZf7Lx-1" target="I2wZMgq4uo3CNsY73Vdn-35" edge="1">
          <mxGeometry width="50" height="50" relative="1" as="geometry">
            <mxPoint x="-648" y="1330" as="sourcePoint" />
            <mxPoint x="-598" y="1280" as="targetPoint" />
          </mxGeometry>
        </mxCell>
        <mxCell id="lTdS-kga0XzyNywZf7Lx-8" value="" style="endArrow=classic;html=1;exitX=1;exitY=0.5;exitDx=0;exitDy=0;entryX=0;entryY=0.5;entryDx=0;entryDy=0;" parent="1" source="lTdS-kga0XzyNywZf7Lx-1" target="I2wZMgq4uo3CNsY73Vdn-36" edge="1">
          <mxGeometry width="50" height="50" relative="1" as="geometry">
            <mxPoint x="-216" y="1596" as="sourcePoint" />
            <mxPoint x="-166" y="1546" as="targetPoint" />
          </mxGeometry>
        </mxCell>
        <mxCell id="lTdS-kga0XzyNywZf7Lx-16" style="edgeStyle=orthogonalEdgeStyle;orthogonalLoop=1;jettySize=auto;html=1;" parent="1" source="lTdS-kga0XzyNywZf7Lx-11" target="I2wZMgq4uo3CNsY73Vdn-33" edge="1">
          <mxGeometry relative="1" as="geometry">
            <Array as="points">
              <mxPoint x="-172" y="1000" />
              <mxPoint x="-172" y="1000" />
            </Array>
          </mxGeometry>
        </mxCell>
        <mxCell id="lTdS-kga0XzyNywZf7Lx-17" style="edgeStyle=orthogonalEdgeStyle;orthogonalLoop=1;jettySize=auto;html=1;" parent="1" source="lTdS-kga0XzyNywZf7Lx-11" target="I2wZMgq4uo3CNsY73Vdn-37" edge="1">
          <mxGeometry relative="1" as="geometry">
            <Array as="points">
              <mxPoint x="-177" y="1129" />
              <mxPoint x="-177" y="1129" />
            </Array>
          </mxGeometry>
        </mxCell>
        <mxCell id="lTdS-kga0XzyNywZf7Lx-11" value="&lt;div&gt;model&lt;/div&gt;&lt;div&gt;fuel&lt;/div&gt;&lt;div&gt;engine type&lt;/div&gt;&lt;div&gt;wingspan&lt;/div&gt;&lt;div&gt;gross weight&lt;/div&gt;&lt;div&gt;company&lt;/div&gt;&lt;div&gt;OperaÃ§Ã£o&lt;/div&gt;&lt;div&gt;Etiqueta&lt;br&gt;Utilizador&lt;/div&gt;" style="rounded=0;whiteSpace=wrap;html=1;" parent="1" vertex="1">
          <mxGeometry x="-422" y="970" width="160" height="173" as="geometry" />
        </mxCell>
        <mxCell id="lTdS-kga0XzyNywZf7Lx-19" style="edgeStyle=orthogonalEdgeStyle;orthogonalLoop=1;jettySize=auto;html=1;" parent="1" source="lTdS-kga0XzyNywZf7Lx-12" target="I2wZMgq4uo3CNsY73Vdn-31" edge="1">
          <mxGeometry relative="1" as="geometry">
            <Array as="points">
              <mxPoint x="-199" y="478" />
              <mxPoint x="-199" y="478" />
            </Array>
          </mxGeometry>
        </mxCell>
        <mxCell id="lTdS-kga0XzyNywZf7Lx-20" style="edgeStyle=orthogonalEdgeStyle;orthogonalLoop=1;jettySize=auto;html=1;" parent="1" source="lTdS-kga0XzyNywZf7Lx-12" target="I2wZMgq4uo3CNsY73Vdn-32" edge="1">
          <mxGeometry relative="1" as="geometry">
            <Array as="points">
              <mxPoint x="-201" y="570" />
              <mxPoint x="-201" y="683" />
            </Array>
          </mxGeometry>
        </mxCell>
        <mxCell id="lTdS-kga0XzyNywZf7Lx-12" value="&lt;span style=&quot;font-family: &amp;quot;gg sans&amp;quot;, &amp;quot;Noto Sans&amp;quot;, &amp;quot;Helvetica Neue&amp;quot;, Helvetica, Arial, sans-serif; font-style: normal; font-variant-ligatures: normal; font-variant-caps: normal; font-weight: 400; letter-spacing: normal; text-align: left; text-indent: 0px; text-transform: none; word-spacing: 0px; -webkit-text-stroke-width: 0px; white-space: break-spaces; background-color: oklab(0.678888 0.00325716 -0.011175 / 0.12); text-decoration-thickness: initial; text-decoration-style: initial; text-decoration-color: initial; display: inline !important; float: none;&quot;&gt;id_companhia_aerea&lt;br&gt;paÃ­s&lt;br&gt;&lt;/span&gt;&lt;div&gt;&lt;span style=&quot;font-family: &amp;quot;gg sans&amp;quot;, &amp;quot;Noto Sans&amp;quot;, &amp;quot;Helvetica Neue&amp;quot;, Helvetica, Arial, sans-serif; font-style: normal; font-variant-ligatures: normal; font-variant-caps: normal; font-weight: 400; letter-spacing: normal; text-align: left; text-indent: 0px; text-transform: none; word-spacing: 0px; -webkit-text-stroke-width: 0px; white-space: break-spaces; background-color: oklab(0.678888 0.00325716 -0.011175 / 0.12); text-decoration-thickness: initial; text-decoration-style: initial; text-decoration-color: initial; display: inline !important; float: none;&quot;&gt;nome&lt;/span&gt;&lt;/div&gt;&lt;div&gt;&lt;span style=&quot;font-family: &amp;quot;gg sans&amp;quot;, &amp;quot;Noto Sans&amp;quot;, &amp;quot;Helvetica Neue&amp;quot;, Helvetica, Arial, sans-serif; font-style: normal; font-variant-ligatures: normal; font-variant-caps: normal; font-weight: 400; letter-spacing: normal; text-align: left; text-indent: 0px; text-transform: none; word-spacing: 0px; -webkit-text-stroke-width: 0px; white-space: break-spaces; background-color: oklab(0.678888 0.00325716 -0.011175 / 0.12); text-decoration-thickness: initial; text-decoration-style: initial; text-decoration-color: initial; display: inline !important; float: none;&quot;&gt;OperaÃ§Ã£o&lt;br&gt;Etiqueta&lt;br&gt;Utilizador&lt;/span&gt;&lt;/div&gt;" style="rounded=0;whiteSpace=wrap;html=1;fontSize=12;" parent="1" vertex="1">
          <mxGeometry x="-407" y="458" width="135.5" height="141" as="geometry" />
        </mxCell>
        <mxCell id="lTdS-kga0XzyNywZf7Lx-13" value="Companhia_AereaRAW" style="text;strokeColor=none;fillColor=none;html=1;align=center;verticalAlign=middle;whiteSpace=wrap;rounded=0;fontSize=16;" parent="1" vertex="1">
          <mxGeometry x="-441" y="424" width="198" height="30" as="geometry" />
        </mxCell>
        <mxCell id="lTdS-kga0XzyNywZf7Lx-14" value="AeronaveRAW" style="text;strokeColor=none;fillColor=none;html=1;align=center;verticalAlign=middle;whiteSpace=wrap;rounded=0;fontSize=16;" parent="1" vertex="1">
          <mxGeometry x="-408" y="928.5" width="132" height="30" as="geometry" />
        </mxCell>
        <mxCell id="lTdS-kga0XzyNywZf7Lx-22" value="&lt;div style=&quot;font-weight: normal; line-height: 19px; white-space: pre;&quot;&gt;&lt;div&gt;&lt;font face=&quot;Helvetica&quot;&gt;&lt;span style=&quot;background-color: light-dark(#ffffff, var(--ge-dark-color, #121212)); color: light-dark(rgb(0, 0, 0), rgb(237, 237, 237));&quot;&gt;Airline Name&lt;/span&gt;&lt;/font&gt;&lt;/div&gt;&lt;div&gt;&lt;div style=&quot;font-weight: normal; line-height: 19px; white-space: pre; color: rgb(230, 237, 243);&quot;&gt;&lt;div&gt;&lt;font face=&quot;Helvetica&quot;&gt;&lt;span style=&quot;color: light-dark(rgb(0, 0, 0), rgb(255, 255, 255));&quot;&gt;Overall_Rating&lt;/span&gt;&lt;/font&gt;&lt;/div&gt;&lt;/div&gt;&lt;font face=&quot;Helvetica&quot;&gt;&lt;span style=&quot;background-color: light-dark(#ffffff, var(--ge-dark-color, #121212)); color: rgba(0, 0, 0, 0);&quot;&gt;&lt;br&gt;&lt;/span&gt;&lt;/font&gt;&lt;/div&gt;&lt;/div&gt;" style="rounded=0;whiteSpace=wrap;html=1;" parent="1" vertex="1">
          <mxGeometry x="-344" y="2258" width="120" height="92" as="geometry" />
        </mxCell>
        <mxCell id="lTdS-kga0XzyNywZf7Lx-23" value="&lt;font style=&quot;font-size: 16px;&quot;&gt;AirlineReviewsRAW&lt;/font&gt;" style="text;html=1;align=center;verticalAlign=middle;whiteSpace=wrap;rounded=0;" parent="1" vertex="1">
          <mxGeometry x="-350" y="2221" width="126" height="30" as="geometry" />
        </mxCell>
        <mxCell id="lTdS-kga0XzyNywZf7Lx-26" value="Fonte 2" style="text;html=1;align=center;verticalAlign=middle;whiteSpace=wrap;rounded=0;" parent="1" vertex="1">
          <mxGeometry x="-1137" y="363" width="60" height="30" as="geometry" />
        </mxCell>
        <mxCell id="lTdS-kga0XzyNywZf7Lx-28" value="Fonte 1" style="text;html=1;align=center;verticalAlign=middle;whiteSpace=wrap;rounded=0;" parent="1" vertex="1">
          <mxGeometry x="-1134" y="-115" width="60" height="30" as="geometry" />
        </mxCell>
        <mxCell id="lTdS-kga0XzyNywZf7Lx-30" value="Fonte 3" style="text;html=1;align=center;verticalAlign=middle;whiteSpace=wrap;rounded=0;" parent="1" vertex="1">
          <mxGeometry x="-1134" y="857" width="60" height="30" as="geometry" />
        </mxCell>
      </root>
    </mxGraphModel>
  </diagram>
</mxfile>
